<?xml version="1.0" encoding="utf-8"?>
<!-- Generator: Adobe Illustrator 23.0.1, SVG Export Plug-In . SVG Version: 6.00 Build 0)  -->
<svg version="1.1" id="Layer_1" xmlns="http://www.w3.org/2000/svg" xmlns:xlink="http://www.w3.org/1999/xlink" x="0px" y="0px"
	 viewBox="0 0 1920 1080" style="enable-background:new 0 0 1920 1080;" xml:space="preserve">
<style type="text/css">
	.st0{fill:#FFFFFF;}
</style>
<g>
	<path class="st0" d="M400.5,349l128.1,219.7H355.9l-98.3-185.3l-34.9,185.3H79l80.2-427.4h143.6l-33.6,180.5l168.2-180.5h171.4
		L400.5,349z"/>
	<path class="st0" d="M896,158c31.9,15.9,56.3,38.2,73.1,67c16.8,28.8,25.2,62.1,25.2,99.9c0,15.7-1.7,33.2-5.2,52.5
		c-7.3,38.2-22.2,72.1-44.6,101.7c-22.4,29.6-51.2,52.6-86.4,69.1C823,564.7,783.2,573,738.8,573c-44.9,0-83.2-7.8-115.2-23.5
		c-31.9-15.7-56.2-37.8-72.8-66.4c-16.6-28.6-24.9-61.8-24.9-99.6c0-19.7,1.7-37.8,5.2-54.3c7.3-38.2,22.3-72,45-101.4
		c22.6-29.4,51.6-52.3,87-68.8c35.4-16.5,75.3-24.7,119.7-24.7C826.4,134.1,864.1,142.1,896,158z M705.2,281.7
		c-17.7,15.9-29.1,37.7-34.3,65.5c-1.7,8.1-2.6,16.7-2.6,25.9c0,23.3,6.8,41.6,20.4,54.9s33.7,19.9,60.5,19.9c26.7,0,49.1-8,67-24.1
		c17.9-16.1,29.2-37.6,34-64.6c1.7-8.5,2.6-17.3,2.6-26.6c0-23.7-6.8-42.1-20.4-55.2c-13.6-13.1-33.5-19.6-59.8-19.6
		C745.3,257.9,722.9,265.8,705.2,281.7z"/>
	<path class="st0" d="M1395.4,463.7c-25.4,32.6-57.9,58.3-97.4,77c-39.5,18.7-83.1,28.1-131,28.1H976.2l80.2-427.4h190.8
		c42.3,0,78.5,7.1,108.7,21.4c30.2,14.3,53.3,34.2,69.2,59.8c16,25.6,23.9,55,23.9,88.4c0,13.3-1.3,27.6-3.9,42.9
		C1437.5,394.5,1420.9,431.1,1395.4,463.7z M1258,424.5c22.2-16.5,36.1-40,41.7-70.6c1.7-10.5,2.6-18.1,2.6-22.9
		c0-23.3-8-41.2-23.9-53.7c-16-12.5-38-18.7-66-18.7h-34.3l-36.2,190.7h34.3C1208.5,449.2,1235.7,441,1258,424.5z"/>
	<path class="st0" d="M1711.1,504.2h-152.7l-34.9,64.6h-150.7l247.8-427.4h165.6l86.7,427.4h-151.4L1711.1,504.2z M1694.9,403.4
		l-18.8-118.9l-64,118.9H1694.9z"/>
</g>
<g>
	<path class="st0" d="M326.4,646.5c19.2,18.1,29.5,41.7,31.1,70.9h-81.3c-2.6-7.8-7.6-13.9-14.9-18.5c-7.3-4.5-16.4-6.8-27.4-6.8
		c-18.8,0-34.8,6.5-48.1,19.5c-13.3,13-21.9,30.3-25.8,52c-1.3,8-2,14.9-2,20.5c0,36.4,19.7,54.6,59,54.6c13,0,25.1-3.2,36.1-9.6
		c11.1-6.4,20.5-15.9,28.3-28.5H205l9.4-56.2h140.7l-13.3,78.3c-13.3,26-31.8,46.7-55.7,62.2c-23.8,15.5-53.5,23.3-88.9,23.3
		c-24.5,0-45.6-4.8-63.3-14.2s-31.2-22.9-40.5-40.3c-9.2-17.4-13.9-37.7-13.9-61c0-11,0.9-21.7,2.7-32.1c4.7-27.6,14.5-52,29.5-73.3
		c15-21.3,34-37.9,57.1-49.8c23.1-11.9,48.7-17.9,76.8-17.9C280.3,619.4,307.2,628.5,326.4,646.5z"/>
	<path class="st0" d="M598.6,642.1c15.1,13.5,22.7,31.5,22.7,54c0,3.5-0.5,9.2-1.6,17.3c-3.7,20.1-12.1,37.4-25.4,52
		c-13.3,14.6-30.5,24.8-51.6,30.7l44.6,110h-84.8l-38.3-104.8h-7.8l-17.6,104.8h-77l48.5-284.3h121.5
		C561.2,621.8,583.5,628.6,598.6,642.1z M465.7,748.3h37.5c21.4,0,33.9-9.9,37.5-29.7c0.3-1.6,0.4-3.9,0.4-6.8
		c0-15.5-9-23.3-27-23.3h-37.9L465.7,748.3z"/>
	<path class="st0" d="M799.9,858.7h-98.1l-23.5,47.4h-80.9L747.1,623h88.3l52.8,283.1h-81.3L799.9,858.7z M790.9,799.3L776.8,707
		l-45.7,92.3H790.9z"/>
	<path class="st0" d="M1003.9,810.9l-16,95.2h-77l48.5-284.3h114.9c29.2,0,51.3,6.6,66.2,19.9c15,13.2,22.5,31.4,22.5,54.4
		c0,5.9-0.7,12.8-2,20.9c-3.1,17.9-9.8,34-20.1,48.2c-10.3,14.2-23.9,25.4-40.8,33.5c-16.9,8.2-36.3,12.2-58.2,12.2L1003.9,810.9
		L1003.9,810.9z M1071.3,740.3c6.4-5.6,10.4-13.4,11.9-23.3c0.5-3.7,0.8-6.4,0.8-8c0-15.5-9.6-23.3-28.9-23.3h-29.3l-10.9,63h29.3
		C1055.9,748.7,1064.9,745.9,1071.3,740.3z"/>
	<path class="st0" d="M1454.5,621.8L1406,906.1h-76.6l19.5-114.8h-93.8l-19.5,114.8h-77l48.5-284.3h77l-18,106.4h93.8l18-106.4
		H1454.5z"/>
	<path class="st0" d="M1574.1,621.8l-48.5,284.3h-77l48.5-284.3H1574.1z"/>
	<path class="st0" d="M1743.3,760.8l81.7,145.3h-92.6l-65.7-125.7l-21.5,125.7h-77l48.5-284.3h77l-21.1,123.3l109-123.3h91.8
		L1743.3,760.8z"/>
</g>
</svg>
