<?xml version="1.0" encoding="utf-8"?>
<!-- Generator: Adobe Illustrator 23.0.1, SVG Export Plug-In . SVG Version: 6.00 Build 0)  -->
<svg version="1.1" id="Layer_1" xmlns="http://www.w3.org/2000/svg" xmlns:xlink="http://www.w3.org/1999/xlink" x="0px" y="0px"
	 viewBox="0 0 1920 1080" style="enable-background:new 0 0 1920 1080;" xml:space="preserve">
<style type="text/css">
	.st0{fill:#FFFFFF;}
</style>
<g>
	<path class="st0" d="M466.07,288.43l109.68,188.13h-147.9l-84.19-158.67l-29.91,158.67H190.77l68.69-365.93h122.97l-28.8,154.54
		l144.02-154.54h146.79L466.07,288.43z"/>
	<path class="st0" d="M890.36,124.85c27.32,13.62,48.19,32.74,62.59,57.37c14.4,24.64,21.6,53.16,21.6,85.54
		c0,13.44-1.48,28.43-4.43,44.97c-6.28,32.74-19.02,61.76-38.22,87.09c-19.21,25.33-43.85,45.05-73.95,59.18
		c-30.1,14.13-64.17,21.19-102.2,21.19c-38.41,0-71.27-6.72-98.6-20.16c-27.33-13.44-48.1-32.38-62.31-56.85
		c-14.22-24.46-21.33-52.89-21.33-85.28c0-16.88,1.47-32.38,4.43-46.52c6.28-32.73,19.11-61.68,38.5-86.83
		c19.39-25.15,44.22-44.79,74.5-58.92c30.27-14.12,64.44-21.19,102.47-21.19C830.72,104.43,863.03,111.24,890.36,124.85z
		 M726.96,230.8c-15.15,13.62-24.93,32.3-29.36,56.08c-1.48,6.9-2.22,14.3-2.22,22.22c0,19.99,5.82,35.66,17.45,47.03
		c11.63,11.37,28.89,17.06,51.79,17.06c22.89,0,42-6.89,57.33-20.67c15.32-13.78,25.01-32.21,29.08-55.3
		c1.47-7.24,2.22-14.81,2.22-22.74c0-20.33-5.82-36.09-17.45-47.29c-11.63-11.19-28.72-16.8-51.24-16.8
		C761.3,210.39,742.09,217.19,726.96,230.8z"/>
	<path class="st0" d="M1317.98,386.63c-21.79,27.91-49.58,49.88-83.36,65.9c-33.79,16.02-71.18,24.03-112.17,24.03H959.04
		l68.69-365.93h163.4c36.19,0,67.21,6.12,93.06,18.35c25.84,12.24,45.6,29.29,59.27,51.17c13.66,21.89,20.5,47.12,20.5,75.72
		c0,11.37-1.11,23.61-3.32,36.7C1353.98,327.37,1339.76,358.72,1317.98,386.63z M1200.27,353.04
		c19.01-14.13,30.92-34.28,35.73-60.47c1.47-8.96,2.21-15.51,2.21-19.64c0-19.98-6.84-35.32-20.49-46
		c-13.67-10.68-32.5-16.02-56.5-16.02h-29.36l-31.02,163.33h29.36C1157.89,374.23,1181.24,367.17,1200.27,353.04z"/>
	<path class="st0" d="M1588.28,421.26h-130.72l-29.91,55.3h-129.06l212.15-365.93h141.8l74.22,365.93h-129.62L1588.28,421.26z
		 M1574.44,334.95l-16.06-101.82l-54.84,101.82H1574.44z"/>
</g>
<g>
	<path class="st0" d="M402.61,543.17c16.4,15.47,25.27,35.7,26.6,60.68h-69.61c-2.23-6.64-6.47-11.91-12.72-15.81
		c-6.25-3.89-14.05-5.84-23.42-5.84c-16.06,0-29.78,5.56-41.16,16.67c-11.38,11.12-18.74,25.95-22.09,44.52
		c-1.12,6.88-1.67,12.72-1.67,17.53c0,31.17,16.84,46.76,50.53,46.76c11.15,0,21.47-2.75,30.95-8.25
		c9.48-5.5,17.57-13.63,24.26-24.41H298.7l8.03-48.13H427.2l-11.38,67.04c-11.38,22.23-27.27,40-47.69,53.29
		c-20.41,13.29-45.79,19.94-76.13,19.94c-20.97,0-39.04-4.07-54.21-12.2c-15.17-8.13-26.72-19.65-34.64-34.55
		c-7.92-14.89-11.88-32.32-11.88-52.25c0-9.4,0.78-18.56,2.34-27.5c4.02-23.6,12.43-44.52,25.27-62.74
		c12.83-18.22,29.11-32.43,48.86-42.63c19.74-10.2,41.66-15.3,65.76-15.3C363.17,519.96,386.21,527.7,402.61,543.17z"/>
	<path class="st0" d="M635.68,539.39c12.94,11.58,19.41,26.99,19.41,46.24c0,2.98-0.45,7.91-1.34,14.78
		c-3.13,17.19-10.37,32.03-21.75,44.52c-11.38,12.49-26.1,21.26-44.17,26.3l38.15,94.2h-72.62l-32.79-89.73h-6.69l-15.06,89.73
		h-65.92l41.5-243.4h104.07C603.66,522.03,622.74,527.82,635.68,539.39z M521.9,630.32h32.13c18.29,0,29-8.48,32.13-25.44
		c0.22-1.37,0.33-3.32,0.33-5.85c0-13.29-7.7-19.94-23.09-19.94h-32.46L521.9,630.32z"/>
	<path class="st0" d="M808.02,724.86h-83.99l-20.08,40.57h-69.27l128.17-242.37h75.63l45.18,242.37h-69.61L808.02,724.86z
		 M800.32,673.98l-12.05-79.07l-39.15,79.07H800.32z"/>
	<path class="st0" d="M982.7,683.95l-13.72,81.48h-65.93l41.5-243.4h98.38c24.98,0,43.89,5.67,56.72,17.02
		c12.83,11.34,19.24,26.88,19.24,46.58c0,5.04-0.56,11-1.67,17.88c-2.68,15.36-8.42,29.11-17.23,41.25
		c-8.81,12.15-20.47,21.72-34.97,28.71c-14.51,6.99-31.12,10.48-49.86,10.48H982.7z M1040.43,623.44
		c5.46-4.81,8.87-11.46,10.21-19.94c0.44-3.21,0.67-5.5,0.67-6.88c0-13.29-8.26-19.94-24.76-19.94h-25.1l-9.37,53.97h25.1
		C1027.21,630.66,1034.96,628.26,1040.43,623.44z"/>
	<path class="st0" d="M1368.54,522.03l-41.5,243.4h-65.59l16.73-98.32h-80.31l-16.73,98.32h-65.92l41.5-243.4h65.92l-15.39,91.1
		h80.31l15.39-91.1H1368.54z"/>
	<path class="st0" d="M1470.94,522.03l-41.5,243.4h-65.92l41.5-243.4H1470.94z"/>
	<path class="st0" d="M1615.84,640.98l69.94,124.45h-79.31l-56.22-107.61l-18.4,107.61h-65.92l41.5-243.4h65.92l-18.07,105.54
		l93.37-105.54h78.64L1615.84,640.98z"/>
</g>
<g>
	<path class="st0" d="M106.52,946.82c-2.86,5.34-7.07,9.43-12.62,12.28c-5.56,2.85-12.26,4.28-20.11,4.28H52.54V892.4h21.25
		c11.84,0,20.97,3.14,27.39,9.41c6.42,6.28,9.63,14.95,9.63,26.03C110.81,935.15,109.38,941.48,106.52,946.82z M95.95,949.33
		c5.19-5.13,7.78-12.3,7.78-21.49s-2.59-16.36-7.78-21.5c-5.19-5.13-12.74-7.7-22.65-7.7H59.62v58.39h13.67
		C83.21,957.03,90.76,954.47,95.95,949.33z"/>
	<path class="st0" d="M170.58,898.14v26.78h27.44v5.54h-27.44v27.08h30.43v5.84H163.5V892.4h37.52v5.74H170.58z"/>
	<path class="st0" d="M293.77,954.47c-1.5,2.85-3.81,5.17-6.94,6.95c-3.13,1.78-7.02,2.67-11.68,2.67c-4.52,0-8.55-0.84-12.07-2.52
		c-3.53-1.68-6.34-3.98-8.43-6.9c-2.1-2.92-3.31-6.19-3.64-9.82h7.38c0.26,2.08,1.03,4.16,2.29,6.24c1.26,2.08,3.09,3.81,5.49,5.18
		c2.39,1.38,5.29,2.06,8.68,2.06c4.46,0,7.87-1.21,10.23-3.62c2.36-2.42,3.54-5.47,3.54-9.16c0-3.15-0.78-5.72-2.34-7.7
		c-1.56-1.98-3.49-3.51-5.79-4.58c-2.3-1.07-5.44-2.25-9.43-3.52c-4.39-1.41-7.93-2.77-10.63-4.08s-4.97-3.24-6.84-5.79
		c-1.86-2.55-2.79-5.94-2.79-10.17c0-5.37,1.86-9.73,5.59-13.09c3.73-3.36,8.85-5.03,15.37-5.03c6.65,0,11.92,1.65,15.82,4.93
		c3.89,3.29,6.2,7.38,6.94,12.28h-7.48c-0.6-3.02-2.18-5.7-4.74-8.05c-2.56-2.35-6.07-3.52-10.53-3.52c-4.13,0-7.42,1.07-9.88,3.22
		c-2.46,2.15-3.69,5.13-3.69,8.96c0,3.02,0.76,5.47,2.29,7.35c1.53,1.88,3.41,3.32,5.64,4.33c2.23,1.01,5.27,2.15,9.13,3.42
		c4.46,1.41,8.07,2.79,10.83,4.13c2.76,1.34,5.1,3.36,7.03,6.04c1.93,2.68,2.89,6.24,2.89,10.67
		C296.01,948.58,295.26,951.62,293.77,954.47z"/>
	<path class="st0" d="M355.78,892.4v70.98h-7.08V892.4H355.78z"/>
	<path class="st0" d="M462.85,897.84c5.52,4.03,9.31,9.5,11.38,16.41h-7.28c-1.8-4.76-4.84-8.62-9.13-11.58
		c-4.29-2.95-9.36-4.43-15.22-4.43c-5.06,0-9.63,1.21-13.72,3.62s-7.3,5.87-9.63,10.37c-2.33,4.5-3.49,9.73-3.49,15.71
		c0,6.11,1.18,11.41,3.54,15.91c2.36,4.5,5.62,7.95,9.78,10.37c4.16,2.42,8.9,3.62,14.22,3.62c4.72,0,9.05-1.06,12.97-3.17
		c3.92-2.11,7.1-5.19,9.53-9.21c2.43-4.03,3.84-8.76,4.24-14.2H440.8v-5.34h35.32v6.24c-0.47,6.04-2.15,11.48-5.04,16.31
		c-2.89,4.83-6.79,8.64-11.68,11.43c-4.89,2.79-10.46,4.18-16.71,4.18c-6.65,0-12.57-1.53-17.76-4.58
		c-5.19-3.05-9.21-7.33-12.07-12.84c-2.86-5.5-4.29-11.75-4.29-18.73s1.43-13.22,4.29-18.73c2.86-5.5,6.87-9.78,12.02-12.84
		c5.15-3.05,11.06-4.58,17.71-4.58C450.58,891.8,457.33,893.81,462.85,897.84z"/>
	<path class="st0" d="M581.5,963.38h-7.08l-38.52-59.3v59.3h-7.08V892.5h7.08l38.52,59.4v-59.4h7.08V963.38z"/>
	<path class="st0" d="M745.35,932.77c2.73,3.22,4.09,7.05,4.09,11.48c0,5.71-1.93,10.32-5.79,13.84c-3.86,3.52-9.45,5.29-16.76,5.29
		h-24.45V892.4h24.15c7.05,0,12.36,1.6,15.92,4.78c3.56,3.19,5.34,7.47,5.34,12.84c0,4.63-1.23,8.34-3.69,11.13
		c-2.46,2.79-5.62,4.62-9.48,5.49C739.06,927.5,742.62,929.55,745.35,932.77z M709.52,924.11h16.17c4.92,0,8.66-1.16,11.23-3.47
		c2.56-2.32,3.84-5.49,3.84-9.51c0-3.96-1.26-7.08-3.79-9.36c-2.53-2.28-6.42-3.42-11.67-3.42h-15.77V924.11z M737.96,953.66
		c2.93-2.45,4.39-5.86,4.39-10.22c0-4.29-1.5-7.7-4.49-10.22s-7.12-3.78-12.37-3.78h-15.97v27.89h16.17
		C730.94,957.34,735.03,956.11,737.96,953.66z"/>
	<path class="st0" d="M848.52,892.4l-22.65,43.29v27.69h-7.08v-27.69l-22.75-43.29h8.08l18.16,35.74l18.16-35.74H848.52z"/>
	<path class="st0" d="M1001.79,963.38l-19.26-29.6h-11.38v29.6h-7.08V892.4h21.55c7.92,0,13.82,1.88,17.71,5.64
		c3.89,3.76,5.84,8.83,5.84,15.2c0,5.91-1.65,10.61-4.94,14.09c-3.29,3.49-8.07,5.57-14.32,6.24l19.86,29.8H1001.79z M971.16,928.44
		h13.97c11.31,0,16.96-4.93,16.96-14.8c0-10.07-5.66-15.1-16.96-15.1h-13.97V928.44z"/>
	<path class="st0" d="M1110.26,896.23c5.19,3.09,9.26,7.38,12.22,12.89c2.96,5.5,4.44,11.75,4.44,18.73s-1.48,13.24-4.44,18.78
		s-7.03,9.85-12.22,12.94c-5.19,3.09-11.04,4.63-17.56,4.63c-6.52,0-12.37-1.54-17.56-4.63c-5.19-3.09-9.26-7.4-12.22-12.94
		c-2.96-5.54-4.44-11.79-4.44-18.78s1.48-13.22,4.44-18.73c2.96-5.5,7.03-9.8,12.22-12.89c5.19-3.09,11.04-4.63,17.56-4.63
		C1099.22,891.59,1105.07,893.14,1110.26,896.23z M1078.88,901.76c-4.09,2.42-7.32,5.87-9.68,10.37c-2.36,4.5-3.54,9.73-3.54,15.71
		s1.18,11.21,3.54,15.71c2.36,4.5,5.59,7.95,9.68,10.37c4.09,2.42,8.7,3.63,13.82,3.63c5.12,0,9.73-1.21,13.82-3.63
		c4.09-2.42,7.32-5.87,9.68-10.37c2.36-4.5,3.54-9.73,3.54-15.71s-1.18-11.21-3.54-15.71c-2.36-4.5-5.59-7.95-9.68-10.37
		c-4.09-2.42-8.7-3.63-13.82-3.63C1087.57,898.14,1082.97,899.35,1078.88,901.76z"/>
	<path class="st0" d="M1222.52,932.77c2.73,3.22,4.09,7.05,4.09,11.48c0,5.71-1.93,10.32-5.79,13.84
		c-3.86,3.52-9.45,5.29-16.76,5.29h-24.45V892.4h24.15c7.05,0,12.36,1.6,15.92,4.78c3.56,3.19,5.34,7.47,5.34,12.84
		c0,4.63-1.23,8.34-3.69,11.13c-2.46,2.79-5.62,4.62-9.48,5.49C1216.23,927.5,1219.79,929.55,1222.52,932.77z M1186.69,924.11h16.17
		c4.92,0,8.66-1.16,11.23-3.47c2.56-2.32,3.84-5.49,3.84-9.51c0-3.96-1.26-7.08-3.79-9.36c-2.53-2.28-6.42-3.42-11.67-3.42h-15.77
		V924.11z M1215.13,953.66c2.93-2.45,4.39-5.86,4.39-10.22c0-4.29-1.5-7.7-4.49-10.22c-2.99-2.52-7.12-3.78-12.37-3.78h-15.96v27.89
		h16.17C1208.11,957.34,1212.21,956.11,1215.13,953.66z"/>
	<path class="st0" d="M1387.26,932.77c2.73,3.22,4.09,7.05,4.09,11.48c0,5.71-1.93,10.32-5.79,13.84
		c-3.86,3.52-9.45,5.29-16.76,5.29h-24.45V892.4h24.15c7.05,0,12.36,1.6,15.92,4.78c3.56,3.19,5.34,7.47,5.34,12.84
		c0,4.63-1.23,8.34-3.69,11.13c-2.46,2.79-5.62,4.62-9.48,5.49C1380.98,927.5,1384.53,929.55,1387.26,932.77z M1351.44,924.11h16.17
		c4.92,0,8.66-1.16,11.23-3.47c2.56-2.32,3.84-5.49,3.84-9.51c0-3.96-1.26-7.08-3.79-9.36c-2.53-2.28-6.42-3.42-11.67-3.42h-15.77
		V924.11z M1379.88,953.66c2.93-2.45,4.39-5.86,4.39-10.22c0-4.29-1.5-7.7-4.49-10.22c-2.99-2.52-7.12-3.78-12.37-3.78h-15.96v27.89
		h16.17C1372.86,957.34,1376.95,956.11,1379.88,953.66z"/>
	<path class="st0" d="M1480.96,963.38l-19.26-29.6h-11.38v29.6h-7.08V892.4h21.55c7.92,0,13.82,1.88,17.71,5.64
		c3.89,3.76,5.84,8.83,5.84,15.2c0,5.91-1.65,10.61-4.94,14.09c-3.29,3.49-8.07,5.57-14.32,6.24l19.86,29.8H1480.96z
		 M1450.33,928.44h13.97c11.31,0,16.96-4.93,16.96-14.8c0-10.07-5.66-15.1-16.96-15.1h-13.97V928.44z"/>
	<path class="st0" d="M1589.42,896.23c5.19,3.09,9.26,7.38,12.22,12.89c2.96,5.5,4.44,11.75,4.44,18.73s-1.48,13.24-4.44,18.78
		s-7.03,9.85-12.22,12.94c-5.19,3.09-11.04,4.63-17.56,4.63c-6.52,0-12.37-1.54-17.56-4.63c-5.19-3.09-9.26-7.4-12.22-12.94
		c-2.96-5.54-4.44-11.79-4.44-18.78s1.48-13.22,4.44-18.73c2.96-5.5,7.03-9.8,12.22-12.89c5.19-3.09,11.04-4.63,17.56-4.63
		C1578.38,891.59,1584.24,893.14,1589.42,896.23z M1558.04,901.76c-4.09,2.42-7.32,5.87-9.68,10.37c-2.36,4.5-3.54,9.73-3.54,15.71
		s1.18,11.21,3.54,15.71c2.36,4.5,5.59,7.95,9.68,10.37c4.09,2.42,8.7,3.63,13.82,3.63c5.12,0,9.73-1.21,13.82-3.63
		c4.09-2.42,7.32-5.87,9.68-10.37c2.36-4.5,3.54-9.73,3.54-15.71s-1.18-11.21-3.54-15.71c-2.36-4.5-5.59-7.95-9.68-10.37
		c-4.09-2.42-8.7-3.63-13.82-3.63C1566.74,898.14,1562.13,899.35,1558.04,901.76z"/>
	<path class="st0" d="M1742.89,892.4l-18.16,70.98h-8.38l-17.56-60.81l-17.66,60.81h-8.38l-18.16-70.98h7.78l14.67,62.22
		l17.76-62.22h7.88l17.76,62.32l14.77-62.32H1742.89z"/>
	<path class="st0" d="M1846.47,963.38h-7.08l-38.52-59.3v59.3h-7.08V892.5h7.08l38.52,59.4v-59.4h7.08V963.38z"/>
</g>
</svg>
