<?xml version="1.0" encoding="utf-8"?>
<!-- Generator: Adobe Illustrator 23.0.1, SVG Export Plug-In . SVG Version: 6.00 Build 0)  -->
<svg version="1.1" id="Layer_1" xmlns="http://www.w3.org/2000/svg" xmlns:xlink="http://www.w3.org/1999/xlink" x="0px" y="0px"
	 viewBox="0 0 1920 1080" style="enable-background:new 0 0 1920 1080;" xml:space="preserve">
<style type="text/css">
	.st0{fill:#FFFFFF;}
	.st1{fill:#FFFFFF;stroke:#000000;stroke-width:0.5;stroke-miterlimit:10;}
</style>
<g>
	<g>
		<path class="st0" d="M1134.99,819.26c-28.52,0-57.48-3.11-86.07-9.24C903.75,778.9,788.9,665.41,756.34,520.9
			c-13.81-61.16-13.71-122.04,0.31-180.94c13.12-55.13,38.85-107.77,74.4-152.25c35.66-44.61,81.5-81.46,132.58-106.58
			c53.58-26.35,111.24-39.71,171.38-39.71c60.59,0,118.65,13.56,172.57,40.3c51.4,25.5,97.43,62.87,133.09,108.07
			c4.14,5.31,4.89,12.36,1.94,18.41c-2.96,6.08-8.78,9.7-15.54,9.7h-178.64c-34.63-18.53-73.76-28.32-113.18-28.32
			c-0.79,0-1.58,0-2.37,0.01c-130.66,1.12-237.71,108.3-238.62,238.93c-0.49,64.65,24.31,125.53,69.85,171.41
			c45.55,45.9,106.25,71.18,170.91,71.18c89.26,0,170.73-48.97,212.62-127.79c4.06-7.55,3.87-16.44-0.52-23.8
			c-4.37-7.31-12.07-11.68-20.6-11.68h-234.42c-12.28,0-22.28-9.99-22.28-22.28V385.38c0-12.12,9.86-21.97,21.97-21.97h405.21
			c5.9,0,11.5,2.07,15.77,5.82c4.84,4.1,7.87,9.74,8.54,15.87c1.75,15.03,2.64,30.25,2.64,45.23c0,24.12-2.15,47.87-6.39,70.58
			c-0.25,1.16-0.48,2.35-0.71,3.54c-0.23,1.19-0.46,2.39-0.71,3.56c-17.57,86.63-64.98,165.54-133.5,222.2
			c-34.11,28.21-72.39,50.21-113.76,65.38C1226.06,811.3,1181.01,819.26,1134.99,819.26z"/>
		<path d="M1135.02,41.66c30.39,0,60.66,3.52,89.96,10.47c28.48,6.75,56.24,16.78,82.5,29.8c25.79,12.79,50.23,28.52,72.64,46.74
			c22.28,18.11,42.59,38.72,60.37,61.26c4.09,5.23,4.82,12.19,1.91,18.15c-2.92,5.99-8.65,9.56-15.32,9.56H1248.5
			c-34.65-18.53-73.8-28.32-113.27-28.32c-0.78,0-1.56,0-2.34,0.01c-130.8,1.12-237.96,108.41-238.87,239.17
			c-0.49,64.72,24.34,125.66,69.92,171.59c45.6,45.95,106.36,71.25,171.08,71.25c89.35,0,170.91-49.02,212.84-127.92
			c4.11-7.63,3.91-16.62-0.53-24.05c-4.41-7.39-12.19-11.8-20.81-11.8h-234.42c-12.15,0-22.03-9.88-22.03-22.03V385.38
			c0-11.98,9.75-21.72,21.72-21.72h405.21c5.84,0,11.38,2.05,15.61,5.77c4.79,4.06,7.79,9.64,8.45,15.71
			c1.75,15.02,2.64,30.23,2.64,45.2c0,24.11-2.15,47.84-6.38,70.52c-0.25,1.17-0.49,2.38-0.71,3.56c-0.22,1.17-0.46,2.38-0.71,3.55
			c-8.86,43.7-25.09,85.23-48.24,123.45c-22.69,37.47-51.35,70.64-85.17,98.61c-34.09,28.19-72.34,50.17-113.68,65.34
			c-42.79,15.69-87.81,23.65-133.8,23.65c-28.51,0-57.45-3.11-86.02-9.23c-71.25-15.27-136.39-50.49-188.38-101.83
			c-52.04-51.39-88-116.09-104.01-187.11c-13.8-61.12-13.7-121.96,0.31-180.83c6.63-27.87,16.4-55.05,29.05-80.79
			c12.42-25.28,27.66-49.29,45.3-71.37c17.78-22.24,38.04-42.58,60.23-60.44c22.32-17.97,46.64-33.47,72.27-46.08
			c26.1-12.84,53.68-22.72,81.97-29.37C1074.8,45.13,1104.85,41.66,1135.02,41.66 M1135.02,41.16
			c-244.46,0-436.36,225.49-378.92,479.79c32.68,145.01,147.45,258.16,292.77,289.32c29.21,6.26,58.01,9.24,86.12,9.24
			c188.33,0,345.36-133.79,381.39-311.44c0.51-2.33,0.91-4.77,1.42-7.1c4.26-22.83,6.39-46.58,6.39-70.63
			c0-15.32-0.91-30.44-2.64-45.26c-0.71-6.49-3.96-12.08-8.63-16.03c-4.26-3.75-9.84-5.89-15.93-5.89h-405.21
			c-12.28,0-22.22,9.94-22.22,22.22v100.16c0,12.48,10.15,22.53,22.53,22.53h234.42c18.06,0,29.43,19.28,20.9,35.11
			c-40.39,76.01-120.35,127.66-212.4,127.66c-133.45,0-241.52-108.68-240.51-242.33c0.91-130.81,107.67-237.56,238.37-238.68
			c0.79-0.01,1.58-0.01,2.37-0.01c40.93,0,79.46,10.3,113.11,28.32h178.7c14.71,0,22.83-16.95,13.8-28.52
			C1369.54,99.2,1259.03,41.16,1135.02,41.16L1135.02,41.16z"/>
	</g>
	<g>
		<path class="st0" d="M671.4,819.25c-3.25,0-6.31-1.43-8.4-3.92l-216.48-257.8c-2.23-2.65-5.31-4.12-8.68-4.12
			c-5.67,0-11.55,4.29-11.57,11.46l-0.57,243.43c-0.01,6.03-4.93,10.94-10.97,10.94H287.22c-6.05,0-10.97-4.92-10.97-10.97V53.99
			c0-6.05,4.92-10.97,10.97-10.97h129.27c2.93,0,5.69,1.14,7.76,3.22c2.07,2.08,3.21,4.84,3.2,7.77l-0.49,213.9
			c-0.01,3.24-1.11,5.84-2.03,7.46l-0.73,1.28L693.8,42.41c2.05-1.94,4.73-3,7.54-3L845.7,39.4c4.59,0,8.49,2.65,10.19,6.91
			s0.68,8.87-2.65,12.02L503.29,389.48c-4.41,4.17-4.8,11.08-0.88,15.72l334.07,396.01c2.78,3.3,3.38,7.78,1.56,11.69
			c-1.82,3.91-5.63,6.35-9.95,6.35H671.4z"/>
		<path d="M845.71,39.15v0.5c4.48,0,8.3,2.59,9.96,6.75c1.66,4.17,0.67,8.67-2.59,11.75L503.11,389.3
			c-4.51,4.27-4.9,11.32-0.9,16.07l334.07,396.01c2.72,3.22,3.3,7.6,1.53,11.43c-1.78,3.83-5.5,6.2-9.72,6.2H671.4
			c-3.17,0-6.17-1.39-8.21-3.83l-216.48-257.8c-2.28-2.71-5.43-4.2-8.87-4.2c-5.8,0-11.8,4.38-11.82,11.71l-0.57,243.43
			c-0.01,5.9-4.82,10.69-10.72,10.69H287.22c-5.91,0-10.72-4.81-10.72-10.72V53.99c0-5.91,4.81-10.72,10.72-10.72h129.27
			c2.87,0,5.56,1.12,7.59,3.15c2.03,2.03,3.14,4.73,3.13,7.59l-0.49,213.9c-0.01,3.13-1.06,5.67-1.96,7.26l-0.64,0.56
			c-3.02,2.85-2.82,3.34-2.72,3.6c0.08,0.21,0.29,0.35,0.53,0.35c0.74,0,2.42-1.8,3.61-3.86L693.98,42.59
			c2-1.89,4.61-2.93,7.36-2.93l144.36-0.01L845.71,39.15 M845.7,39.15l-144.36,0.01c-2.86,0-5.62,1.1-7.7,3.06L425.15,275.5
			c-1.33,2.33-2.88,3.69-3.22,3.69c-0.29,0,0.28-0.95,2.53-3.09l0.69-0.6c1.1-1.93,2.06-4.53,2.06-7.58l0.49-213.9
			c0.01-6.21-5.01-11.24-11.22-11.24H287.22c-6.2,0-11.22,5.02-11.22,11.22v754.3c0,6.2,5.02,11.22,11.22,11.22h127.52
			c6.19,0,11.2-5.01,11.22-11.19l0.57-243.43c0.02-6.82,5.58-11.21,11.32-11.21c3.05,0,6.15,1.24,8.49,4.03l216.48,257.8
			c2.13,2.54,5.28,4,8.59,4h156.69c9.54,0,14.73-11.16,8.57-18.45L502.59,405.04c-3.83-4.55-3.46-11.29,0.86-15.38L853.42,58.51
			C860.78,51.54,855.85,39.14,845.7,39.15L845.7,39.15z"/>
	</g>
	<polygon class="st1" points="938.15,927.17 757.52,927.17 688.51,845.99 869.14,845.99 	"/>
	<polygon class="st1" points="1024.41,1028.65 843.77,1028.65 826.52,1008.35 1007.16,1008.35 	"/>
	<polygon class="st1" points="989.9,988.06 809.27,988.06 774.77,947.47 955.4,947.47 	"/>
	<line class="st1" x1="839" y1="810.57" x2="743.11" y2="697.73"/>
	<path class="st1" d="M1595.12,440.88c0,20.19,0,40.19-0.1,60.08h-49.83c1.52-22.83,2.33-46.58,2.33-70.63
		c0-15.32-0.3-30.44-1.01-45.26c-0.2-6.49-1.42-12.08-3.15-16.03h51.55C1595.02,392.68,1595.12,416.63,1595.12,440.88z"/>
	<path class="st1" d="M1666.16,440.88c0,20.19,0,40.19-0.1,60.08h-35.31V369.04h35.21C1666.06,392.68,1666.16,416.63,1666.16,440.88
		z"/>
	<rect x="1701.78" y="369.04" class="st1" width="15.22" height="131.92"/>
</g>
</svg>
